#tb 0: 1000000/70086303
#media_type 0: video
#codec_id 0: rawvideo
#dimensions 0: 320x200
#sar 0: 0/1
0,          0,          0,        1,   192000, 0x5234b617
0,          1,          1,        1,   192000, 0x5234b617
0,          2,          2,        1,   192000, 0x5234b617
0,          3,          3,        1,   192000, 0x5234b617
0,          4,          4,        1,   192000, 0x5234b617
0,          5,          5,        1,   192000, 0x5234b617
0,          6,          6,        1,   192000, 0x5234b617
0,          7,          7,        1,   192000, 0x5234b617
0,          8,          8,        1,   192000, 0x5234b617
0,          9,          9,        1,   192000, 0x5234b617
0,         10,         10,        1,   192000, 0x5234b617
0,         11,         11,        1,   192000, 0x5234b617
0,         12,         12,        1,   192000, 0x5234b617
0,         13,         13,        1,   192000, 0x5234b617
0,         14,         14,        1,   192000, 0x5234b617
0,         15,         15,        1,   192000, 0x5234b617
0,         16,         16,        1,   192000, 0x5234b617
0,         17,         17,        1,   192000, 0x5234b617
0,         18,         18,        1,   192000, 0x5234b617
0,         19,         19,        1,   192000, 0x5234b617
0,         20,         20,        1,   192000, 0x5234b617
0,         21,         21,        1,   192000, 0x5234b617
0,         22,         22,        1,   192000, 0x5234b617
0,         23,         23,        1,   192000, 0x5234b617
0,         24,         24,        1,   192000, 0x5234b617
0,         25,         25,        1,   192000, 0x5234b617
0,         26,         26,        1,   192000, 0x5234b617
0,         27,         27,        1,   192000, 0x5234b617
0,         28,         28,        1,   192000, 0x5234b617
0,         29,         29,        1,   192000, 0x5234b617
0,         30,         30,        1,   192000, 0x5234b617
0,         31,         31,        1,   192000, 0x5234b617
0,         32,         32,        1,   192000, 0x5234b617
0,         33,         33,        1,   192000, 0x5234b617
0,         34,         34,        1,   192000, 0x5234b617
0,         35,         35,        1,   192000, 0x5234b617
0,         36,         36,        1,   192000, 0x5234b617
0,         37,         37,        1,   192000, 0x5234b617
0,         38,         38,        1,   192000, 0x5234b617
0,         39,         39,        1,   192000, 0x5234b617
0,         40,         40,        1,   192000, 0x5234b617
0,         41,         41,        1,   192000, 0x5234b617
0,         42,         42,        1,   192000, 0x5234b617
0,         43,         43,        1,   192000, 0x5234b617
0,         44,         44,        1,   192000, 0x5234b617
0,         45,         45,        1,   192000, 0x5234b617
0,         46,         46,        1,   192000, 0x5234b617
0,         47,         47,        1,   192000, 0x5234b617
0,         48,         48,        1,   192000, 0x5234b617
0,         49,         49,        1,   192000, 0x5234b617
0,         50,         50,        1,   192000, 0x5234b617
0,         51,         51,        1,   192000, 0x5234b617
0,         52,         52,        1,   192000, 0x5234b617
0,         53,         53,        1,   192000, 0x5234b617
0,         54,         54,        1,   192000, 0x5234b617
0,         55,         55,        1,   192000, 0x5234b617
0,         56,         56,        1,   192000, 0x5234b617
0,         57,         57,        1,   192000, 0x5234b617
0,         58,         58,        1,   192000, 0x5234b617
0,         59,         59,        1,   192000, 0x5234b617
0,         60,         60,        1,   192000, 0x5234b617
0,         61,         61,        1,   192000, 0x5234b617
0,         62,         62,        1,   192000, 0x5234b617
0,         63,         63,        1,   192000, 0x5234b617
0,         64,         64,        1,   192000, 0x5234b617
0,         65,         65,        1,   192000, 0x5234b617
0,         66,         66,        1,   192000, 0x5234b617
0,         67,         67,        1,   192000, 0x5234b617
0,         68,         68,        1,   192000, 0x5234b617
0,         69,         69,        1,   192000, 0x5234b617
0,         70,         70,        1,   192000, 0x5234b617
0,         71,         71,        1,   192000, 0x5234b617
0,         72,         72,        1,   192000, 0x5234b617
0,         73,         73,        1,   192000, 0x5234b617
0,         74,         74,        1,   192000, 0x5234b617
0,         75,         75,        1,   192000, 0x5234b617
0,         76,         76,        1,   192000, 0x5234b617
0,         77,         77,        1,   192000, 0x5234b617
0,         78,         78,        1,   192000, 0x5234b617
0,         79,         79,        1,   192000, 0x5234b617
0,         80,         80,        1,   192000, 0x5234b617
0,         81,         81,        1,   192000, 0x5234b617
0,         82,         82,        1,   192000, 0x5234b617
0,         83,         83,        1,   192000, 0x5234b617
0,         84,         84,        1,   192000, 0x5234b617
0,         85,         85,        1,   192000, 0x5234b617
0,         86,         86,        1,   192000, 0x0c148693
0,         87,         87,        1,   192000, 0x973f438b
0,         88,         88,        1,   192000, 0x602a279b
0,         89,         89,        1,   192000, 0x739c7527
0,         90,         90,        1,   192000, 0x4ef4b477
0,         91,         91,        1,   192000, 0x8fffec23
0,         92,         92,        1,   192000, 0xe192c706
0,         93,         93,        1,   192000, 0xf38000e5
0,         94,         94,        1,   192000, 0x628b9051
0,         95,         95,        1,   192000, 0xd7c162c0
0,         96,         96,        1,   192000, 0xd4b85307
0,         97,         97,        1,   192000, 0x377cf8cf
0,         98,         98,        1,   192000, 0xf1ffdff2
0,         99,         99,        1,   192000, 0x95a0ab01
0,        100,        100,        1,   192000, 0xeb69c7f0
0,        101,        101,        1,   192000, 0xfbd0af52
0,        102,        102,        1,   192000, 0x32da6d10
0,        103,        103,        1,   192000, 0xca8e7836
0,        104,        104,        1,   192000, 0x404cefe9
0,        105,        105,        1,   192000, 0x0433e9c8
0,        106,        106,        1,   192000, 0xd6e09ecf
0,        107,        107,        1,   192000, 0xc9a822b5
0,        108,        108,        1,   192000, 0x032f2398
0,        109,        109,        1,   192000, 0x9e0305bf
0,        110,        110,        1,   192000, 0x9d66c993
0,        111,        111,        1,   192000, 0xe126b022
0,        112,        112,        1,   192000, 0xb59d2829
0,        113,        113,        1,   192000, 0x967ad5b1
0,        114,        114,        1,   192000, 0xb76ad1dc
0,        115,        115,        1,   192000, 0xc901e6e3
0,        116,        116,        1,   192000, 0xd22bc862
0,        117,        117,        1,   192000, 0xe7547295
0,        118,        118,        1,   192000, 0x179a8d78
0,        119,        119,        1,   192000, 0x87a4310f
0,        120,        120,        1,   192000, 0x4e24d3b3
0,        121,        121,        1,   192000, 0xb1b8e58a
0,        122,        122,        1,   192000, 0x0ae55330
0,        123,        123,        1,   192000, 0xdb3288ab
0,        124,        124,        1,   192000, 0x31867a92
0,        125,        125,        1,   192000, 0x2a44a0a5
0,        126,        126,        1,   192000, 0x29c062f4
0,        127,        127,        1,   192000, 0xf4df3a2b
0,        128,        128,        1,   192000, 0x8e424f86
0,        129,        129,        1,   192000, 0x25b901f9
0,        130,        130,        1,   192000, 0x77af6cad
0,        131,        131,        1,   192000, 0x0b82d562
0,        132,        132,        1,   192000, 0x4322dc3e
0,        133,        133,        1,   192000, 0x4322dc3e
0,        134,        134,        1,   192000, 0x4322dc3e
0,        135,        135,        1,   192000, 0x2c51f91e
0,        136,        136,        1,   192000, 0x2c51f91e
0,        137,        137,        1,   192000, 0x2c51f91e
0,        138,        138,        1,   192000, 0x2c51f91e
0,        139,        139,        1,   192000, 0x197128e5
0,        140,        140,        1,   192000, 0x197128e5
0,        141,        141,        1,   192000, 0x197128e5
0,        142,        142,        1,   192000, 0xb67867c5
0,        143,        143,        1,   192000, 0xb67867c5
0,        144,        144,        1,   192000, 0xb67867c5
0,        145,        145,        1,   192000, 0xb67867c5
0,        146,        146,        1,   192000, 0x62fcac19
0,        147,        147,        1,   192000, 0x62fcac19
0,        148,        148,        1,   192000, 0x62fcac19
0,        149,        149,        1,   192000, 0xe4f4f281
0,        150,        150,        1,   192000, 0xe4f4f281
0,        151,        151,        1,   192000, 0xe4f4f281
0,        152,        152,        1,   192000, 0xe4f4f281
0,        153,        153,        1,   192000, 0x060c3190
0,        154,        154,        1,   192000, 0x060c3190
0,        155,        155,        1,   192000, 0x060c3190
0,        156,        156,        1,   192000, 0xe5c05bb4
0,        157,        157,        1,   192000, 0xe5c05bb4
0,        158,        158,        1,   192000, 0xe5c05bb4
0,        159,        159,        1,   192000, 0xe5c05bb4
0,        160,        160,        1,   192000, 0xd4b187fc
0,        161,        161,        1,   192000, 0xd4b187fc
0,        162,        162,        1,   192000, 0xd4b187fc
0,        163,        163,        1,   192000, 0x9a549a6c
0,        164,        164,        1,   192000, 0x9a549a6c
0,        165,        165,        1,   192000, 0x9a549a6c
0,        166,        166,        1,   192000, 0x9a549a6c
0,        167,        167,        1,   192000, 0xd491bd50
0,        168,        168,        1,   192000, 0xd491bd50
0,        169,        169,        1,   192000, 0xd491bd50
0,        170,        170,        1,   192000, 0xfdfad4a8
0,        171,        171,        1,   192000, 0xfdfad4a8
0,        172,        172,        1,   192000, 0xfdfad4a8
0,        173,        173,        1,   192000, 0xfdfad4a8
0,        174,        174,        1,   192000, 0x363ef77c
0,        175,        175,        1,   192000, 0x363ef77c
0,        176,        176,        1,   192000, 0x363ef77c
0,        177,        177,        1,   192000, 0x80c016f7
0,        178,        178,        1,   192000, 0x80c016f7
0,        179,        179,        1,   192000, 0x80c016f7
0,        180,        180,        1,   192000, 0x80c016f7
0,        181,        181,        1,   192000, 0x65852e7f
0,        182,        182,        1,   192000, 0x65852e7f
0,        183,        183,        1,   192000, 0x65852e7f
0,        184,        184,        1,   192000, 0xcb13542b
0,        185,        185,        1,   192000, 0xcb13542b
0,        186,        186,        1,   192000, 0xcb13542b
0,        187,        187,        1,   192000, 0xcb13542b
0,        188,        188,        1,   192000, 0xb7a5664f
0,        189,        189,        1,   192000, 0xb7a5664f
0,        190,        190,        1,   192000, 0xb7a5664f
0,        191,        191,        1,   192000, 0x8a128fd7
0,        192,        192,        1,   192000, 0x8a128fd7
0,        193,        193,        1,   192000, 0x8a128fd7
0,        194,        194,        1,   192000, 0x8a128fd7
0,        195,        195,        1,   192000, 0x9674b39b
0,        196,        196,        1,   192000, 0x9674b39b
0,        197,        197,        1,   192000, 0x9674b39b
0,        198,        198,        1,   192000, 0x2940e3b3
0,        199,        199,        1,   192000, 0x2940e3b3
0,        200,        200,        1,   192000, 0x2940e3b3
0,        201,        201,        1,   192000, 0x2940e3b3
0,        202,        202,        1,   192000, 0x0440e56b
0,        203,        203,        1,   192000, 0x0440e56b
0,        204,        204,        1,   192000, 0x0440e56b
0,        205,        205,        1,   192000, 0xefa3d16b
0,        206,        206,        1,   192000, 0xefa3d16b
0,        207,        207,        1,   192000, 0xefa3d16b
0,        208,        208,        1,   192000, 0xefa3d16b
0,        209,        209,        1,   192000, 0x6569b257
0,        210,        210,        1,   192000, 0x6569b257
0,        211,        211,        1,   192000, 0x6569b257
0,        212,        212,        1,   192000, 0x089985d7
0,        213,        213,        1,   192000, 0x089985d7
0,        214,        214,        1,   192000, 0x089985d7
0,        215,        215,        1,   192000, 0x089985d7
0,        216,        216,        1,   192000, 0x87e160af
0,        217,        217,        1,   192000, 0x87e160af
0,        218,        218,        1,   192000, 0x87e160af
0,        219,        219,        1,   192000, 0x117433bb
0,        220,        220,        1,   192000, 0x117433bb
0,        221,        221,        1,   192000, 0x117433bb
0,        222,        222,        1,   192000, 0x117433bb
0,        223,        223,        1,   192000, 0xd9e0f8bc
0,        224,        224,        1,   192000, 0xd9e0f8bc
0,        225,        225,        1,   192000, 0xd9e0f8bc
0,        226,        226,        1,   192000, 0x653cac38
0,        227,        227,        1,   192000, 0x653cac38
0,        228,        228,        1,   192000, 0x653cac38
0,        229,        229,        1,   192000, 0x653cac38
0,        230,        230,        1,   192000, 0x9070526c
0,        231,        231,        1,   192000, 0x9070526c
0,        232,        232,        1,   192000, 0x9070526c
0,        233,        233,        1,   192000, 0x15e6e9c9
0,        234,        234,        1,   192000, 0x15e6e9c9
0,        235,        235,        1,   192000, 0x15e6e9c9
0,        236,        236,        1,   192000, 0x15e6e9c9
0,        237,        237,        1,   192000, 0x610eab25
0,        238,        238,        1,   192000, 0x610eab25
0,        239,        239,        1,   192000, 0x610eab25
0,        240,        240,        1,   192000, 0xde2a829d
0,        241,        241,        1,   192000, 0xde2a829d
0,        242,        242,        1,   192000, 0xde2a829d
0,        243,        243,        1,   192000, 0xde2a829d
0,        244,        244,        1,   192000, 0x2014becd
0,        245,        245,        1,   192000, 0x2014becd
0,        246,        246,        1,   192000, 0x2014becd
0,        247,        247,        1,   192000, 0x551e0f98
0,        248,        248,        1,   192000, 0x551e0f98
0,        249,        249,        1,   192000, 0x551e0f98
0,        250,        250,        1,   192000, 0x551e0f98
0,        251,        251,        1,   192000, 0x4aaa6bec
0,        252,        252,        1,   192000, 0x4aaa6bec
0,        253,        253,        1,   192000, 0x4aaa6bec
0,        254,        254,        1,   192000, 0x4053d278
0,        255,        255,        1,   192000, 0x4053d278
0,        256,        256,        1,   192000, 0x4053d278
0,        257,        257,        1,   192000, 0x4053d278
0,        258,        258,        1,   192000, 0xa0e645db
0,        259,        259,        1,   192000, 0xa0e645db
0,        260,        260,        1,   192000, 0xa0e645db
0,        261,        261,        1,   192000, 0x3f1fc327
0,        262,        262,        1,   192000, 0x3f1fc327
0,        263,        263,        1,   192000, 0x3f1fc327
0,        264,        264,        1,   192000, 0x3f1fc327
0,        265,        265,        1,   192000, 0xa4ca2a9a
0,        266,        266,        1,   192000, 0xa4ca2a9a
0,        267,        267,        1,   192000, 0xa4ca2a9a
0,        268,        268,        1,   192000, 0xf1b2b22e
0,        269,        269,        1,   192000, 0xf1b2b22e
0,        270,        270,        1,   192000, 0xf1b2b22e
0,        271,        271,        1,   192000, 0xf1b2b22e
0,        272,        272,        1,   192000, 0xd08e49d1
0,        273,        273,        1,   192000, 0xd08e49d1
0,        274,        274,        1,   192000, 0xd08e49d1
0,        275,        275,        1,   192000, 0x1f34135f
